<svg width="19" height="18" viewBox="0 0 19 18" fill="none" xmlns="http://www.w3.org/2000/svg">
<path fill-rule="evenodd" clip-rule="evenodd" d="M9.47485 0C14.4444 0 18.4749 4.03014 18.4749 9C18.4749 13.9696 14.4445 18 9.47485 18C4.50502 18 0.474854 13.9696 0.474854 9C0.474854 4.03016 4.505 0 9.47485 0Z" fill="url(#paint0_linear)"/>
<path fill-rule="evenodd" clip-rule="evenodd" d="M11.352 8.80029H13.6819V12.6612C13.1494 13.0429 12.5369 13.3358 11.8446 13.5399C11.1523 13.7441 10.46 13.8461 9.76772 13.8461C8.79138 13.8461 7.91269 13.6398 7.13162 13.2271C6.35055 12.8143 5.73813 12.2396 5.29434 11.503C4.85055 10.7663 4.62866 9.93195 4.62866 8.99999C4.62866 8.06804 4.85055 7.23372 5.29434 6.49703C5.73813 5.76034 6.35499 5.18565 7.14493 4.77292C7.93488 4.3602 8.82688 4.15384 9.82097 4.15384C10.6908 4.15384 11.4719 4.30029 12.1642 4.59319C12.8565 4.88609 13.4334 5.30768 13.8949 5.85798L12.2174 7.37573C11.5872 6.68342 10.8328 6.33727 9.95411 6.33727C9.15529 6.33727 8.5118 6.57913 8.02363 7.06286C7.53546 7.54659 7.29138 8.1923 7.29138 8.99999C7.29138 9.51479 7.40233 9.9741 7.62422 10.378C7.84612 10.7818 8.15677 11.0969 8.55618 11.3232C8.95559 11.5496 9.41268 11.6627 9.92748 11.6627C10.4334 11.6627 10.9082 11.5606 11.352 11.3565V8.80029Z" fill="white"/>
<defs>
<linearGradient id="paint0_linear" x1="0.474854" y1="0.126603" x2="0.474854" y2="17.8734" gradientUnits="userSpaceOnUse">
<stop stop-color="#FF9990"/>
<stop offset="1" stop-color="#FD5879"/>
</linearGradient>
</defs>
</svg>
