<svg width="40" height="40" viewBox="0 0 40 40" fill="none" xmlns="http://www.w3.org/2000/svg">
<path fill-rule="evenodd" clip-rule="evenodd" d="M20 0C31.0435 0 40 8.95588 40 20C40 31.0435 31.0436 40 20 40C8.95592 40 0 31.0436 0 20C0 8.95592 8.95588 0 20 0Z" fill="url(#paint0_linear)"/>
<path fill-rule="evenodd" clip-rule="evenodd" d="M24.1716 19.5562H29.3491V28.1361C28.1657 28.9842 26.8047 29.6351 25.2663 30.0888C23.7278 30.5424 22.1894 30.7692 20.6509 30.7692C18.4813 30.7692 16.5286 30.3107 14.7929 29.3935C13.0572 28.4763 11.6963 27.1992 10.7101 25.5621C9.72387 23.925 9.23077 22.071 9.23077 20C9.23077 17.929 9.72387 16.075 10.7101 14.4379C11.6963 12.8008 13.0671 11.5237 14.8225 10.6065C16.5779 9.68935 18.5602 9.23077 20.7692 9.23077C22.7022 9.23077 24.4379 9.55621 25.9763 10.2071C27.5148 10.858 28.7968 11.7949 29.8225 13.0178L26.0947 16.3905C24.6943 14.8521 23.0178 14.0828 21.0651 14.0828C19.2899 14.0828 17.86 14.6203 16.7752 15.6953C15.6903 16.7702 15.1479 18.2051 15.1479 20C15.1479 21.144 15.3945 22.1647 15.8876 23.0621C16.3807 23.9596 17.071 24.6598 17.9586 25.1627C18.8462 25.6657 19.8619 25.9172 21.0059 25.9172C22.1302 25.9172 23.1854 25.6903 24.1716 25.2367V19.5562Z" fill="white"/>
<defs>
<linearGradient id="paint0_linear" x1="0" y1="0.28134" x2="0" y2="39.7187" gradientUnits="userSpaceOnUse">
<stop stop-color="#FF9990"/>
<stop offset="1" stop-color="#FD5879"/>
</linearGradient>
</defs>
</svg>
