<svg width="15" height="15" viewBox="0 0 15 15" fill="none" xmlns="http://www.w3.org/2000/svg">
<path fill-rule="evenodd" clip-rule="evenodd" d="M7.5 0C11.6413 0 15 3.35845 15 7.5C15 11.6413 11.6413 15 7.5 15C3.35847 15 0 11.6413 0 7.5C0 3.35847 3.35845 0 7.5 0Z" fill="url(#paint0_linear)"/>
<path fill-rule="evenodd" clip-rule="evenodd" d="M7.25373 2.88462L2.30762 5.40253L7.25373 7.92043L12.1998 5.40253L7.25373 2.88462ZM3.71002 6.63287L2.30762 7.34819L7.25373 9.86609L12.1998 7.34819L10.7974 6.63287L7.48369 8.32101L7.25373 8.43903L7.02376 8.32101L3.71002 6.63287ZM2.30762 9.29384L3.71002 8.57852L7.02376 10.2667L7.25373 10.3847L7.48369 10.2667L10.7974 8.57852L12.1998 9.29384L7.25373 11.8117L2.30762 9.29384Z" fill="white"/>
<path fill-rule="evenodd" clip-rule="evenodd" d="M9.62019 5.09207C9.6692 5.23742 9.65439 5.40328 9.57516 5.59081C9.4965 5.77776 9.31297 5.97213 9.02512 6.1739C8.66775 6.42412 8.24425 6.55351 7.75406 6.56206C7.26388 6.57061 6.80903 6.4549 6.3901 6.21437L5.66736 5.80056C5.24956 5.56117 5.01929 5.28872 4.97597 4.98378C4.93265 4.67827 5.08427 4.40411 5.43025 4.16186C5.79162 3.90879 6.16837 3.77256 6.56052 3.75262C6.95324 3.73324 7.3129 3.82158 7.64007 4.01709L7.65033 4.02849L7.09231 4.41892C6.90878 4.31405 6.72069 4.26389 6.52803 4.26845C6.33538 4.27358 6.15241 4.33685 5.97914 4.45768C5.79788 4.58479 5.73405 4.73412 5.78649 4.90569C5.83949 5.07725 5.9951 5.23685 6.2533 5.38447L6.98003 5.80113C7.24165 5.95047 7.51125 6.03255 7.7894 6.04736C8.06755 6.06218 8.30182 6.00291 8.49276 5.86953C8.63355 5.77092 8.72816 5.68372 8.77661 5.60734C8.82506 5.53096 8.84672 5.46256 8.84045 5.40214L8.17072 5.01855L7.60245 5.41639L7.12309 5.14166L8.28529 4.32773L9.62019 5.09207Z" fill="#826EFB"/>
<defs>
<linearGradient id="paint0_linear" x1="0" y1="15" x2="15" y2="15" gradientUnits="userSpaceOnUse">
<stop stop-color="#7D6FFF"/>
<stop offset="1" stop-color="#C86DD7"/>
</linearGradient>
</defs>
</svg>
