<svg width="13" height="13" viewBox="0 0 13 13" fill="none" xmlns="http://www.w3.org/2000/svg">
<path fill-rule="evenodd" clip-rule="evenodd" d="M5.5 10.75C2.60051 10.75 0.25 8.3995 0.25 5.5C0.25 2.60051 2.60051 0.25 5.5 0.25C8.3995 0.25 10.75 2.60051 10.75 5.5C10.75 6.62788 10.3943 7.67268 9.78905 8.52838L12.4303 11.1697C12.7232 11.4626 12.7232 11.9374 12.4303 12.2303C12.1374 12.5232 11.6626 12.5232 11.3697 12.2303L8.7571 9.61776C7.86206 10.3267 6.73046 10.75 5.5 10.75ZM5.5 9.25C7.57107 9.25 9.25 7.57107 9.25 5.5C9.25 3.42893 7.57107 1.75 5.5 1.75C3.42893 1.75 1.75 3.42893 1.75 5.5C1.75 7.57107 3.42893 9.25 5.5 9.25Z" fill="#A4A4A4"/>
</svg>
