<svg width="15" height="15" viewBox="0 0 15 15" fill="none" xmlns="http://www.w3.org/2000/svg">
<path fill-rule="evenodd" clip-rule="evenodd" d="M7.5 0C11.6413 0 15 3.35845 15 7.5C15 11.6413 11.6413 15 7.5 15C3.35847 15 0 11.6413 0 7.5C0 3.35847 3.35845 0 7.5 0Z" fill="url(#paint0_linear)"/>
<path fill-rule="evenodd" clip-rule="evenodd" d="M9.06424 7.33358H11.0058V10.551C10.562 10.8691 10.0517 11.1132 9.47474 11.2833C8.89781 11.4534 8.3209 11.5385 7.74397 11.5385C6.93036 11.5385 6.19812 11.3665 5.54722 11.0226C4.89633 10.6786 4.38598 10.1997 4.01616 9.5858C3.64634 8.97189 3.46143 8.27663 3.46143 7.5C3.46143 6.72337 3.64634 6.02811 4.01616 5.4142C4.38598 4.80029 4.90003 4.32138 5.55832 3.97744C6.21661 3.63351 6.95994 3.46154 7.78835 3.46154C8.5132 3.46154 9.16409 3.58358 9.74101 3.82766C10.3179 4.07175 10.7987 4.42308 11.1833 4.88166L9.78539 6.14645C9.26024 5.56953 8.63155 5.28107 7.8993 5.28107C7.23361 5.28107 6.69737 5.48262 6.29057 5.88573C5.88376 6.28884 5.68036 6.82692 5.68036 7.5C5.68036 7.929 5.77282 8.31176 5.95773 8.6483C6.14264 8.98484 6.40151 9.24741 6.73435 9.43602C7.0672 9.62463 7.44811 9.71894 7.87711 9.71894C8.29871 9.71894 8.69441 9.63388 9.06424 9.46376V7.33358Z" fill="white"/>
<defs>
<linearGradient id="paint0_linear" x1="0" y1="0.105503" x2="0" y2="14.8945" gradientUnits="userSpaceOnUse">
<stop stop-color="#FF9990"/>
<stop offset="1" stop-color="#FD5879"/>
</linearGradient>
</defs>
</svg>
