<svg width="14" height="13" viewBox="0 0 14 13" fill="none" xmlns="http://www.w3.org/2000/svg">
<g clip-path="url(#clip0)">
<path fill-rule="evenodd" clip-rule="evenodd" d="M0.574951 13C0.57706 12.6635 0.604 12.3277 0.655551 11.9952L0.656731 11.9878C0.735836 11.4898 0.835434 10.8628 1.19375 10.3053C1.511 9.80683 1.89789 9.56885 2.32488 9.30622L2.32995 9.3031C3.0432 8.86192 3.82471 8.54214 4.64265 8.35677C4.8555 8.27778 5.06382 8.18708 5.26665 8.08509C5.52665 7.9551 5.73465 7.53264 5.70085 7.22456C5.69012 7.18202 5.67064 7.14217 5.64365 7.10757C5.09708 6.27018 4.77101 5.34041 4.58557 4.35301C4.57457 4.35474 4.56344 4.35612 4.55219 4.35713C4.27716 4.38189 4.03414 4.179 4.00939 3.90397C3.9852 3.63529 4.17827 3.39716 4.44362 3.36322C4.40456 2.84634 4.4363 2.32565 4.53865 1.8157C4.76225 0.813478 5.39405 0.196028 6.33525 0.0582389C6.8634 -0.032534 7.40435 -0.0170668 7.92645 0.103735C8.86635 0.344216 9.42925 1.02666 9.56705 2.06788C9.62455 2.50178 9.63657 2.92947 9.61035 3.35138C9.88301 3.39072 10.0726 3.64331 10.034 3.91626C9.99584 4.18606 9.749 4.37493 9.47978 4.34274C9.38913 4.79804 9.25899 5.24673 9.09905 5.68939C8.98773 5.99751 8.83918 6.28977 8.69021 6.58289C8.62172 6.71763 8.55315 6.85255 8.48805 6.98928C8.46795 7.02164 8.45139 7.05607 8.43865 7.09197C8.37495 7.39875 8.58035 7.93041 8.84555 8.0721C9.13322 8.21491 9.4288 8.3412 9.73085 8.45037C10.4622 8.70928 11.1768 9.01317 11.8707 9.36029C12.8275 9.86075 13.3007 10.7096 13.4593 11.8041C13.4972 12.0689 13.519 12.3336 13.5413 12.6045C13.5518 12.7326 13.5624 12.862 13.575 12.9935L0.574951 13Z" fill="#E20074"/>
</g>
<defs>
<clipPath id="clip0">
<rect width="13" height="13" fill="white" transform="translate(0.574951)"/>
</clipPath>
</defs>
</svg>
